<svg xmlns="http://www.w3.org/2000/svg" viewBox="0 0 100 100" role="img" aria-label="can-hub">
  <path d="M50.00 30.00 L50.00 19.00" fill="none" stroke="#0b6e3a" stroke-width="2.6" stroke-linecap="round" stroke-linejoin="round"/><path d="M50.00 19.00 L42.18 9.75" fill="none" stroke="#0b6e3a" stroke-width="2.2" stroke-linecap="round" stroke-linejoin="round"/><path d="M50.00 19.00 L57.82 9.75" fill="none" stroke="#0b6e3a" stroke-width="2.2" stroke-linecap="round" stroke-linejoin="round"/><path d="M67.32 40.00 L85.51 29.50" fill="none" stroke="#0b6e3a" stroke-width="2.6" stroke-linecap="round" stroke-linejoin="round"/><path d="M67.32 60.00 L76.85 65.50" fill="none" stroke="#0b6e3a" stroke-width="2.6" stroke-linecap="round" stroke-linejoin="round"/><path d="M76.85 65.50 L88.77 63.35" fill="none" stroke="#0b6e3a" stroke-width="2.2" stroke-linecap="round" stroke-linejoin="round"/><path d="M76.85 65.50 L80.94 76.90" fill="none" stroke="#0b6e3a" stroke-width="2.2" stroke-linecap="round" stroke-linejoin="round"/><path d="M50.00 70.00 L50.00 91.00" fill="none" stroke="#0b6e3a" stroke-width="2.6" stroke-linecap="round" stroke-linejoin="round"/><path d="M32.68 60.00 L23.15 65.50" fill="none" stroke="#0b6e3a" stroke-width="2.6" stroke-linecap="round" stroke-linejoin="round"/><path d="M23.15 65.50 L19.06 76.90" fill="none" stroke="#0b6e3a" stroke-width="2.2" stroke-linecap="round" stroke-linejoin="round"/><path d="M23.15 65.50 L11.23 63.35" fill="none" stroke="#0b6e3a" stroke-width="2.2" stroke-linecap="round" stroke-linejoin="round"/><path d="M32.68 40.00 L14.49 29.50" fill="none" stroke="#0b6e3a" stroke-width="2.6" stroke-linecap="round" stroke-linejoin="round"/>
  <rect x="46.22" y="15.22" width="7.57" height="7.57" rx="1.19" fill="#0b6e3a"/><rect x="39.51" y="7.09" width="5.33" height="5.33" rx="0.84" fill="#0b6e3a"/><circle cx="57.82" cy="9.75" r="2.79" fill="#0b6e3a"/><polygon points="85.51,24.44 90.57,29.50 85.51,34.56 80.45,29.50" fill="#ffffff" stroke="#0b6e3a" stroke-width="2.1" stroke-linejoin="round"/><polygon points="76.85,60.44 81.91,65.50 76.85,70.56 71.79,65.50" fill="#0b6e3a" stroke-linejoin="round"/><polygon points="88.77,59.78 92.33,63.35 88.77,66.91 85.20,63.35" fill="#0b6e3a" stroke-linejoin="round"/><circle cx="80.94" cy="76.90" r="2.85" fill="#ffffff" stroke="#0b6e3a" stroke-width="2.0"/><circle cx="80.94" cy="76.90" r="1.12" fill="#0b6e3a"/><rect x="46.22" y="87.22" width="7.57" height="7.57" rx="1.19" fill="#ffffff" stroke="#0b6e3a" stroke-width="2.1"/><polygon points="23.15,61.10 26.96,63.30 26.96,67.70 23.15,69.90 19.34,67.70 19.34,63.30" fill="#0b6e3a" stroke-linejoin="round"/><polygon points="19.06,73.80 21.74,75.35 21.74,78.45 19.06,80.00 16.37,78.45 16.37,75.35" fill="#0b6e3a" stroke-linejoin="round"/><rect x="8.44" y="60.56" width="5.58" height="5.58" rx="2.05" fill="#0b6e3a"/><polygon points="14.49,24.66 19.07,33.28 9.92,33.28" fill="#ffffff" stroke="#0b6e3a" stroke-width="2.1" stroke-linejoin="round"/>
  <polygon points="50.00,30.00 67.32,40.00 67.32,60.00 50.00,70.00 32.68,60.00 32.68,40.00" fill="#ffffff" stroke="#0b6e3a" stroke-width="4.2" stroke-linejoin="round"/>
  <polygon points="50.00,38.40 60.05,44.20 60.05,55.80 50.00,61.60 39.95,55.80 39.95,44.20" fill="#0b6e3a"/>
  <circle cx="50" cy="50" r="3.20" fill="#ffffff"/>
</svg>
